<svg width="42" height="49" viewBox="0 0 42 49" fill="none" xmlns="http://www.w3.org/2000/svg">
<path d="M12.4703 15.7891C15.3565 9.88882 21.9697 7.47917 27.2301 8.52492C31.9688 9.46592 34.6866 12.977 34.6866 18.158V38.8192C34.6866 38.8872 34.6949 38.9538 34.7154 39.0164H29.8972V22.8738C29.8972 19.2186 29.3865 16.4228 28.3638 14.4864C27.3423 12.5514 25.305 11.5818 22.2517 11.5818C20.2609 11.5818 18.4481 12.1706 16.812 13.3496C14.3543 14.9106 12.8359 18.5237 12.4539 22.3122V15.8204L12.4703 15.7891Z" fill="url(#paint0_linear_260_31)"/>
<path d="M12.4703 13.2993C13.6684 11.3411 15.2635 9.69302 17.5952 8.56574C20.7484 7.04137 24.3631 6.52598 27.5081 7.15155C30.0041 7.64788 32.1086 8.8296 33.5914 10.5715C35.2549 12.5243 36.0956 15.0767 36.0956 18.158V38.8193C36.0956 38.8873 36.0874 38.9539 36.0668 39.0165H41.0219V20.7213C41.0219 18.2845 40.9137 16.28 40.6947 14.7095C40.4756 13.1402 39.9991 11.677 39.2639 10.3227C38.1179 7.99462 36.3873 6.19421 34.0705 4.92144C31.7511 3.64866 29.1223 3.01221 26.1772 3.01221C23.1514 3.01221 20.4732 3.61463 18.1415 4.81942C15.8111 6.02557 13.6245 7.9035 12.4539 10.4301V13.3292L12.4703 13.2993Z" fill="url(#paint1_linear_260_31)"/>
<path d="M29.9114 41.9495V46.1296C29.9114 47.3249 30.8876 48.2945 32.0911 48.2945H38.8275C40.0324 48.2945 41.0086 47.3249 41.0086 46.1296V40.3544H29.9114V41.9495Z" fill="white"/>
<path d="M1.22974 10.43H6.09581V48.0619C4.78002 47.9232 3.67645 47.3521 2.78372 46.3499C1.74723 45.1859 1.22968 43.5201 1.22968 41.3539L1.22974 10.43ZM7.50678 10.43V48.0551C8.8308 47.9069 9.93574 47.3589 10.8215 46.4111C11.8703 45.2879 12.3947 43.6017 12.3947 41.3539V27.4632C12.3947 26.2489 12.4139 25.1379 12.4536 24.1303V10.43H7.50678Z" fill="url(#paint2_linear_260_31)"/>
<path d="M11.9085 9.05323L8.97943 3.50316L8.40376 2.41278L7.91032 1.47756C7.495 0.690699 6.4163 0.668922 5.9722 1.43945L5.4116 2.41278L4.94557 3.22277L1.58881 9.05323H11.9085Z" fill="white"/>
<defs>
<linearGradient id="paint0_linear_260_31" x1="33.0732" y1="23.652" x2="10.8446" y2="23.652" gradientUnits="userSpaceOnUse">
<stop stop-color="white"/>
<stop offset="1" stop-color="#FAFAFA" stop-opacity="0.25"/>
</linearGradient>
<linearGradient id="paint1_linear_260_31" x1="38.9144" y1="21.0143" x2="10.3886" y2="21.0143" gradientUnits="userSpaceOnUse">
<stop stop-color="white"/>
<stop offset="1" stop-color="white" stop-opacity="0.25"/>
</linearGradient>
<linearGradient id="paint2_linear_260_31" x1="6.84169" y1="11.4636" x2="6.84169" y2="47.644" gradientUnits="userSpaceOnUse">
<stop stop-color="white"/>
<stop offset="1" stop-color="white" stop-opacity="0.25"/>
</linearGradient>
</defs>
</svg>
